<svg width="217" height="101" viewBox="0 0 217 101" fill="none" xmlns="http://www.w3.org/2000/svg"><g clip-path="url(#clip0_208_20)"><path d="M0 43.516V0.597733H21.8691C31.5529 0.597733 36.9061 4.79361 36.9061 12.3478C36.9061 17.1453 34.3416 20.3817 29.7869 21.5811V21.699C34.8018 22.6585 37.6456 26.1977 37.6456 31.5891C37.6456 39.2612 32.2924 43.516 22.6676 43.516H0ZM12.4725 17.9239H19.8749C22.8367 17.9239 24.4887 16.4257 24.4887 13.787C24.4887 11.1484 22.8367 9.89001 19.8749 9.89001H12.4725V17.9239ZM12.4725 34.2277H20.3312C23.466 34.2277 25.2321 32.7294 25.2321 30.1498C25.2321 27.2123 23.466 25.655 20.3312 25.655H12.4725V34.2277Z" fill="#FFA6C3"/><path d="M118.203 43.52V0.597733H130.68V15.0454L130.735 15.1083L141.614 0.597733H156.592L142.869 16.7875L156.876 43.52H141.898L134.377 26.6146L130.68 30.8694V43.52H118.203Z" fill="#FFA6C3"/><path d="M0 99.5018V56.5834H17.8257C32.1783 56.5834 40.2101 64.2556 40.2101 78.0426C40.2101 91.8296 32.1822 99.5018 17.8257 99.5018H0ZM12.0162 89.3129H17.8257C24.2055 89.3129 27.7927 85.294 27.7927 78.0426C27.7927 70.7912 24.2055 66.7723 17.8257 66.7723H12.0162V89.3129Z" fill="#FFA6C3"/><path d="M57.1823 56.5874H44.7098V99.5057H57.1823V56.5874Z" fill="#FFA6C3"/><path d="M61.682 78.0426C61.682 64.2556 70.4532 55.0852 83.496 55.0852C92.9517 55.0852 100.468 60.9602 102.293 69.7688L90.9024 71.9277C89.8798 68.5104 86.859 66.1746 83.3269 66.1746C77.8596 66.1746 74.1544 70.9092 74.1544 78.0426C74.1544 85.176 78.5401 90.3314 85.0339 90.3314C90.159 90.3314 94.0333 86.9731 94.3755 82.2385H79.5667V74.7433H106.392V99.5018H97.6205L96.3658 91.4718H96.3107C94.1435 97.2839 88.2789 100.76 81.2147 100.76C69.5368 100.76 61.678 91.6487 61.678 78.0426" fill="#FFA6C3"/><path d="M111.635 99.5018V56.5874H140.737V66.7723H123.651V73.249H138.46V82.0576H123.651V89.3129H141.308V99.5018H111.635Z" fill="#FFA6C3"/><path d="M143.868 86.9141L155.031 84.6962C155.66 89.073 158.964 91.7117 163.515 91.7117C167.562 91.7117 170.123 89.9735 170.123 87.3939C170.123 85.3569 168.357 84.1536 164.258 83.316L159.019 82.4154C149.111 80.6183 144.781 76.6623 144.781 69.348C144.781 60.4765 152.297 55.0813 162.378 55.0813C171.374 55.0813 178.438 59.9378 179.406 67.547L168.467 70.0677C168.015 66.5285 165.45 64.3735 162.091 64.3735C158.96 64.3735 156.911 65.9898 156.911 68.3295C156.911 70.3665 158.563 71.4479 162.378 72.1047L167.673 73.0052C177.695 74.5034 182.139 78.5774 182.139 86.1945C182.139 95.7856 174.111 100.996 162.89 100.996C152.411 100.996 144.781 96.4423 143.868 86.9102" fill="#FFA6C3"/><path d="M193.082 99.5018V67.6728H181.691V56.5874H217V67.6728H205.55V99.5018H193.082Z" fill="#FFA6C3"/><path d="M77.7102 21.176C78.1507 33.2367 70.2723 43.3155 60.1126 43.6891C49.9529 44.0587 41.3626 34.5816 40.922 22.5209C40.4815 10.4602 48.3599 0.381445 58.5157 0.0117987C68.6793 -0.357848 77.2696 9.11926 77.7102 21.176Z" fill="white"/><path d="M112.284 22.2142C112.728 34.2749 104.85 44.3537 94.6902 44.7233C84.5305 45.0929 75.9362 35.6158 75.4957 23.5551C75.0552 11.4944 82.9336 1.41567 93.0933 1.04603C103.253 0.676382 111.843 10.1496 112.284 22.2103" fill="white"/><path d="M112.378 24.7309C112.622 31.4081 108.256 36.9882 102.635 37.1967C97.0108 37.4011 92.2555 32.1514 92.0077 25.4781C91.7677 18.7969 96.1258 13.2208 101.75 13.0123C107.375 12.8079 112.134 18.0537 112.378 24.7309Z" fill="#153A7A"/><path d="M75.3738 23.6456C75.6137 30.3228 71.2556 35.9029 65.6271 36.1074C60.0064 36.3119 55.2471 31.066 55.0032 24.3888C54.7594 17.7116 59.1214 12.1315 64.746 11.9231C70.3706 11.7186 75.1299 16.9644 75.3738 23.6456Z" fill="#153A7A"/></g><defs><clipPath id="clip0_208_20"><rect width="217" height="101" fill="white"/></clipPath></defs></svg>
